<svg width="106" height="100" viewBox="0 0 106 100" fill="none" xmlns="http://www.w3.org/2000/svg">
<path d="M39.2664 41H71.5553L72.7136 36.1429H43.8996V31.2857H75.6835C76.0356 31.2857 76.3831 31.3699 76.6995 31.5318C77.016 31.6937 77.2931 31.9292 77.5097 32.2202C77.7264 32.5112 77.8769 32.8502 77.9498 33.2114C78.0227 33.5725 78.0161 33.9463 77.9306 34.3044L72.139 58.5901C72.0136 59.1153 71.7243 59.5815 71.3171 59.9146C70.91 60.2476 70.4084 60.4286 69.8919 60.4286H36.9498C36.3354 60.4286 35.7462 60.1727 35.3117 59.7173C34.8773 59.2618 34.6332 58.6441 34.6332 58V28.8571H30V24H36.9498C37.5642 24 38.1535 24.2559 38.5879 24.7113C39.0223 25.1668 39.2664 25.7845 39.2664 26.4286V41ZM39.2664 75C38.0376 75 36.8591 74.4883 35.9902 73.5774C35.1214 72.6665 34.6332 71.4311 34.6332 70.1429C34.6332 68.8547 35.1214 67.6192 35.9902 66.7083C36.8591 65.7974 38.0376 65.2857 39.2664 65.2857C40.4952 65.2857 41.6737 65.7974 42.5426 66.7083C43.4115 67.6192 43.8996 68.8547 43.8996 70.1429C43.8996 71.4311 43.4115 72.6665 42.5426 73.5774C41.6737 74.4883 40.4952 75 39.2664 75ZM67.0657 75C65.8369 75 64.6584 74.4883 63.7895 73.5774C62.9206 72.6665 62.4325 71.4311 62.4325 70.1429C62.4325 68.8547 62.9206 67.6192 63.7895 66.7083C64.6584 65.7974 65.8369 65.2857 67.0657 65.2857C68.2945 65.2857 69.473 65.7974 70.3419 66.7083C71.2108 67.6192 71.6989 68.8547 71.6989 70.1429C71.6989 71.4311 71.2108 72.6665 70.3419 73.5774C69.473 74.4883 68.2945 75 67.0657 75Z" fill="#F0608D"/>
<path d="M94 49.5C94 71.8675 75.8675 90 53.5 90C31.1325 90 13 71.8675 13 49.5C13 27.1325 31.1325 9 53.5 9C75.8675 9 94 27.1325 94 49.5ZM18.1771 49.5C18.1771 69.0083 33.9917 84.8229 53.5 84.8229C73.0083 84.8229 88.8229 69.0083 88.8229 49.5C88.8229 29.9917 73.0083 14.1771 53.5 14.1771C33.9917 14.1771 18.1771 29.9917 18.1771 49.5Z" fill="black"/>
</svg>
