<svg width="99" height="39" viewBox="0 0 99 39" fill="none" xmlns="http://www.w3.org/2000/svg">
<g clip-path="url(#clip0)">
<path d="M29.45 29.175C28.2167 29.175 27.1167 28.9917 26.15 28.625C25.2 28.2583 24.45 27.75 23.9 27.1C23.3667 26.4333 23.1 25.675 23.1 24.825C23.1 24.5083 23.1167 24.275 23.15 24.125H28.475C28.4583 24.5417 28.575 24.85 28.825 25.05C29.0917 25.25 29.45 25.35 29.9 25.35C30.1833 25.35 30.425 25.2833 30.625 25.15C30.8417 25.0167 30.95 24.8583 30.95 24.675C30.95 24.4083 30.7833 24.2 30.45 24.05C30.1167 23.8833 29.5667 23.7 28.8 23.5C27.8333 23.2333 27.025 22.9583 26.375 22.675C25.7417 22.3917 25.1833 21.975 24.7 21.425C24.2333 20.8583 24 20.125 24 19.225C24 18.3917 24.25 17.6333 24.75 16.95C25.2667 16.25 25.9833 15.7083 26.9 15.325C27.8333 14.925 28.9083 14.725 30.125 14.725C31.4583 14.725 32.6 14.95 33.55 15.4C34.5167 15.85 35.2417 16.4583 35.725 17.225C36.2083 17.9917 36.4333 18.8417 36.4 19.775H31.475C31.475 19.3917 31.3583 19.1 31.125 18.9C30.8917 18.6833 30.55 18.575 30.1 18.575C29.8167 18.575 29.575 18.6333 29.375 18.75C29.1917 18.8667 29.1 19.025 29.1 19.225C29.1 19.475 29.2667 19.6833 29.6 19.85C29.9333 20 30.5 20.2 31.3 20.45C32.2833 20.7333 33.0917 21.0167 33.725 21.3C34.375 21.5667 34.9417 21.975 35.425 22.525C35.9083 23.0583 36.15 23.7417 36.15 24.575C36.15 26.025 35.525 27.1583 34.275 27.975C33.0417 28.775 31.4333 29.175 29.45 29.175ZM52.3525 14.8C53.7192 14.8 54.7692 15.2 55.5025 16C56.2359 16.7833 56.6025 17.8667 56.6025 19.25C56.6025 19.75 56.5525 20.275 56.4525 20.825L55.0025 29H49.4775L50.8025 21.525C50.8359 21.2583 50.8525 21.075 50.8525 20.975C50.8525 20.4583 50.7025 20.0583 50.4025 19.775C50.1192 19.4917 49.7192 19.35 49.2025 19.35C48.5859 19.35 48.0692 19.5417 47.6525 19.925C47.2525 20.3083 46.9859 20.8417 46.8525 21.525V21.5L45.5275 29H39.9775L43.2525 10.5H48.8025L47.6525 17.025C48.2025 16.3583 48.8775 15.825 49.6775 15.425C50.4775 15.0083 51.3692 14.8 52.3525 14.8ZM66.5842 29.175C65.3342 29.175 64.2342 28.9333 63.2842 28.45C62.3342 27.9667 61.5925 27.2833 61.0592 26.4C60.5258 25.5 60.2592 24.4583 60.2592 23.275C60.2592 21.6417 60.6425 20.175 61.4092 18.875C62.1925 17.575 63.2592 16.5583 64.6092 15.825C65.9592 15.0917 67.4675 14.725 69.1342 14.725C70.3842 14.725 71.4842 14.975 72.4342 15.475C73.3842 15.9583 74.1258 16.65 74.6592 17.55C75.1925 18.4333 75.4592 19.4667 75.4592 20.65C75.4592 22.2833 75.0758 23.75 74.3092 25.05C73.5425 26.35 72.4842 27.3667 71.1342 28.1C69.7842 28.8167 68.2675 29.175 66.5842 29.175ZM67.4342 24.375C68.1508 24.375 68.7175 24.05 69.1342 23.4C69.5508 22.75 69.7592 22.025 69.7592 21.225C69.7592 20.6583 69.6175 20.2333 69.3342 19.95C69.0675 19.6667 68.7175 19.525 68.2842 19.525C67.5675 19.525 67.0008 19.85 66.5842 20.5C66.1675 21.15 65.9592 21.875 65.9592 22.675C65.9592 23.2417 66.0925 23.6667 66.3592 23.95C66.6258 24.2333 66.9842 24.375 67.4342 24.375ZM86.0027 16.825C86.4694 16.175 87.0611 15.6667 87.7777 15.3C88.5111 14.9167 89.3361 14.725 90.2527 14.725C91.6694 14.725 92.8111 15.2 93.6777 16.15C94.5444 17.1 94.9777 18.4167 94.9777 20.1C94.9777 20.7333 94.9194 21.35 94.8027 21.95C94.5361 23.4333 94.0527 24.725 93.3527 25.825C92.6527 26.9083 91.8111 27.7417 90.8277 28.325C89.8444 28.8917 88.8027 29.175 87.7027 29.175C86.7861 29.175 86.0277 28.9917 85.4277 28.625C84.8444 28.2417 84.4361 27.725 84.2027 27.075L82.6777 35.75H77.1277L80.8027 14.9H86.3527L86.0027 16.825ZM89.1777 21.95C89.2111 21.8 89.2277 21.6 89.2277 21.35C89.2277 20.7833 89.0777 20.35 88.7777 20.05C88.4777 19.7333 88.0694 19.575 87.5527 19.575C86.9527 19.575 86.4194 19.7833 85.9527 20.2C85.5027 20.6167 85.2111 21.2 85.0777 21.95C85.0444 22.1 85.0277 22.3 85.0277 22.55C85.0277 23.1167 85.1777 23.5583 85.4777 23.875C85.7777 24.175 86.1861 24.325 86.7027 24.325C87.3027 24.325 87.8277 24.1167 88.2777 23.7C88.7444 23.2833 89.0444 22.7 89.1777 21.95Z" fill="#36FF87"/>
<path d="M22.7417 11.0295C22.7371 12.585 22.3612 14.0609 21.7576 15.4846C20.8691 17.5745 19.5524 19.3734 17.9714 20.988C16.5157 22.4753 14.8914 23.7625 13.1556 24.9042C12.1919 25.5364 11.1873 26.1004 10.0802 26.4551C9.45368 26.6553 8.81355 26.7599 8.15518 26.7394C7.32596 26.7167 6.72683 26.3073 6.294 25.6342C5.84749 24.9405 5.7632 24.1696 5.95001 23.3873C6.30539 21.9068 6.92047 20.5469 8.00711 19.4462C8.5584 18.8867 9.2236 18.5229 10.0278 18.4774C10.5585 18.4478 11.0643 18.5388 11.5131 18.8481C11.6042 18.9117 11.6885 18.9891 11.7591 19.0732C11.9823 19.3325 12.0598 19.619 11.9596 19.9647C11.7864 20.556 11.4219 21.0176 11.0142 21.4611C10.3148 22.2206 9.61087 22.9779 8.92517 23.7512C8.56068 24.1628 8.28275 24.6313 8.18024 25.1839C8.09823 25.6251 8.32148 25.9162 8.77254 25.9571C9.00946 25.9798 9.23727 25.9366 9.46052 25.8525C10.8091 25.3408 12.0074 24.5744 13.135 23.692C14.6409 22.514 16.0259 21.2109 17.2401 19.7327C18.2539 18.5001 19.0466 17.1447 19.4544 15.5915C19.7164 14.5908 19.787 13.5856 19.4704 12.5805C19.3519 12.203 19.1697 11.8596 18.935 11.5412C18.5728 11.0454 18.0648 10.843 17.4725 10.8066C16.7276 10.7634 16.0441 10.9863 15.3744 11.2751C14.3607 11.7117 13.4175 12.278 12.5017 12.892C10.939 13.9404 9.39218 15.007 7.92282 16.1827C7.25534 16.7172 6.60837 17.2789 5.87255 17.7246C5.33265 18.0521 4.76997 18.3295 4.1435 18.4319C2.9065 18.632 1.96794 18.1249 1.26173 17.1424C0.737776 16.417 0.680824 15.5937 0.828899 14.7455C1.00659 13.738 1.48271 12.8579 2.04539 12.0187C3.14798 10.3745 4.55355 9.02594 6.13453 7.85248C8.04583 6.43567 10.1189 5.31451 12.3833 4.56631C13.4882 4.20017 14.6158 3.96366 15.789 4.00459C17.2652 4.05462 18.6525 4.41167 19.8964 5.22809C21.3976 6.21508 22.2542 7.63416 22.5845 9.37617C22.687 9.91969 22.7462 10.4382 22.7417 11.0295Z" fill="black"/>
</g>
<defs>
<clipPath id="clip0">
<rect width="99" height="39" fill="white"/>
</clipPath>
</defs>
</svg>
